<svg width="10" height="11" viewBox="0 0 10 11" fill="none" xmlns="http://www.w3.org/2000/svg">
<path d="M1.57812 11C1.31771 11 1.09635 10.9109 0.914063 10.7326C0.731771 10.5544 0.640625 10.338 0.640625 10.0833V1.375H0V0.458333H2.9375V0H7.0625V0.458333H10V1.375H9.35938V10.0833C9.35938 10.3278 9.26562 10.5417 9.07812 10.725C8.89062 10.9083 8.67188 11 8.42188 11H1.57812ZM8.42188 1.375H1.57812V10.0833H8.42188V1.375ZM3.23438 8.76944H4.17188V2.67361H3.23438V8.76944ZM5.82812 8.76944H6.76562V2.67361H5.82812V8.76944ZM1.57812 1.375V10.0833V1.375Z" fill="#464646"/>
</svg>
