<svg width="25" height="24" viewBox="0 0 25 24" fill="none" xmlns="http://www.w3.org/2000/svg">
<path d="M6.86816 19.9999C5.43483 19.9999 4.2015 19.4832 3.16816 18.4499C2.13483 17.4166 1.61816 16.1832 1.61816 14.7499C1.61816 13.4499 2.03066 12.3041 2.85566 11.3124C3.68066 10.3207 4.74316 9.7249 6.04316 9.5249C6.3765 7.90824 7.15983 6.5874 8.39316 5.5624C9.6265 4.5374 11.0515 4.0249 12.6682 4.0249C14.5515 4.0249 16.1307 4.70407 17.4057 6.0624C18.6807 7.42074 19.3182 9.0499 19.3182 10.9499V11.5499C20.5182 11.5166 21.5348 11.9041 22.3682 12.7124C23.2015 13.5207 23.6182 14.5416 23.6182 15.7749C23.6182 16.9249 23.2015 17.9166 22.3682 18.7499C21.5348 19.5832 20.5432 19.9999 19.3932 19.9999H13.3682C12.9682 19.9999 12.6182 19.8499 12.3182 19.5499C12.0182 19.2499 11.8682 18.8999 11.8682 18.4999V12.0499L9.79316 14.1249L8.71816 13.0499L12.6182 9.1499L16.5182 13.0499L15.4432 14.1249L13.3682 12.0499V18.4999H19.3932C20.1432 18.4999 20.7848 18.2332 21.3182 17.6999C21.8515 17.1666 22.1182 16.5249 22.1182 15.7749C22.1182 15.0249 21.8515 14.3832 21.3182 13.8499C20.7848 13.3166 20.1432 13.0499 19.3932 13.0499H17.8182V10.9499C17.8182 9.46657 17.314 8.19157 16.3057 7.1249C15.2973 6.05824 14.0515 5.5249 12.5682 5.5249C11.0848 5.5249 9.83483 6.05824 8.81816 7.1249C7.8015 8.19157 7.29316 9.46657 7.29316 10.9499H6.81816C5.78483 10.9499 4.90983 11.3124 4.19316 12.0374C3.4765 12.7624 3.11816 13.6582 3.11816 14.7249C3.11816 15.7582 3.48483 16.6457 4.21816 17.3874C4.9515 18.1291 5.83483 18.4999 6.86816 18.4999H10.3682V19.9999H6.86816Z" fill="white"/>
</svg>
