<svg width="52" height="52" viewBox="0 0 52 52" fill="none" xmlns="http://www.w3.org/2000/svg">
<path d="M22.8542 3.7647C24.6267 2.32272 27.168 2.32272 28.9406 3.7647C30.4487 4.99155 32.4087 5.51671 34.3282 5.2083C36.5843 4.84581 38.7851 6.11644 39.5992 8.25152C40.2919 10.0681 41.7267 11.5029 43.5432 12.1955C45.6783 13.0097 46.9489 15.2104 46.5864 17.4665C46.278 19.3861 46.8032 21.346 48.03 22.8542C49.472 24.6267 49.472 27.168 48.03 28.9406C46.8032 30.4487 46.278 32.4087 46.5864 34.3282C46.9489 36.5843 45.6783 38.7851 43.5432 39.5992C41.7267 40.2919 40.2919 41.7267 39.5992 43.5432C38.7851 45.6783 36.5843 46.9489 34.3282 46.5864C32.4087 46.278 30.4487 46.8032 28.9406 48.03C27.168 49.472 24.6267 49.472 22.8542 48.03C21.346 46.8032 19.3861 46.278 17.4665 46.5864C15.2104 46.9489 13.0097 45.6783 12.1955 43.5432C11.5029 41.7267 10.0681 40.2919 8.25152 39.5992C6.11644 38.7851 4.84581 36.5843 5.2083 34.3282C5.51671 32.4087 4.99155 30.4487 3.7647 28.9406C2.32272 27.168 2.32272 24.6267 3.7647 22.8542C4.99155 21.346 5.51671 19.3861 5.2083 17.4665C4.84581 15.2104 6.11644 13.0097 8.25152 12.1955C10.0681 11.5029 11.5029 10.0681 12.1955 8.25152C13.0097 6.11644 15.2104 4.84581 17.4665 5.2083C19.3861 5.51671 21.346 4.99155 22.8542 3.7647Z" stroke="white" stroke-width="2"/>
<path d="M29.8084 31.2641L28.7807 27.3802L32.2065 24.7464L27.6844 24.4065L25.9441 20.7168L24.1901 24.4065L19.6816 24.7464L23.1075 27.3802L22.066 31.2641L25.9441 29.1886L29.8084 31.2641Z" fill="#F8DABF"/>
<path d="M29.8084 30.7455L28.7807 26.8616L32.2065 24.2278L27.6844 23.888L25.9441 20.1982L24.1901 23.888L19.6816 24.2278L23.1075 26.8616L22.066 30.7455L25.9441 28.6701L29.8084 30.7455Z" fill="white"/>
<circle cx="25.8973" cy="25.8934" r="11.9666" stroke="white" stroke-width="3"/>
<circle cx="25.948" cy="25.8972" r="11.5857" fill="white" fill-opacity="0.24"/>
<mask id="mask0_1205_8543" style="mask-type:alpha" maskUnits="userSpaceOnUse" x="16" y="12" width="22" height="23">
<path d="M36.5121 30.6664L20.4966 14.6509L19.304 13.4583C18.6453 12.7996 17.5774 12.7996 16.9187 13.4583C16.26 14.1169 16.26 15.1849 16.9187 15.8436L34.638 33.5628C35.2966 34.2215 36.3646 34.2215 37.0233 33.5628C37.6819 32.9041 37.6819 31.8362 37.0233 31.1775L36.5121 30.6664Z" fill="#D9D9D9"/>
</mask>
<g mask="url(#mask0_1205_8543)">
<circle cx="25.9485" cy="25.8962" r="11.5857" fill="url(#paint0_linear_1205_8543)" fill-opacity="0.23"/>
</g>
<mask id="mask1_1205_8543" style="mask-type:alpha" maskUnits="userSpaceOnUse" x="13" y="17" width="22" height="22">
<path d="M14.7037 21.1246L30.7192 37.1401L31.9118 38.3327C32.5705 38.9914 33.6384 38.9914 34.2971 38.3327C34.9558 37.6741 34.9558 36.6061 34.2971 35.9475L16.5779 18.2282C15.9192 17.5695 14.8512 17.5695 14.1926 18.2282C13.5339 18.8869 13.5339 19.9548 14.1926 20.6135L14.7037 21.1246Z" fill="#D9D9D9"/>
</mask>
<g mask="url(#mask1_1205_8543)">
<circle cx="25.2669" cy="25.8948" r="11.5857" transform="rotate(-180 25.2669 25.8948)" fill="url(#paint1_linear_1205_8543)" fill-opacity="0.23"/>
</g>
<path d="M41.4522 17.1338L41.8426 18.788L43.4968 19.1783L41.8426 19.5687L41.4522 21.2228L41.0619 19.5687L39.4077 19.1783L41.0619 18.788L41.4522 17.1338Z" fill="white" fill-opacity="0.63"/>
<path d="M39.4075 11L40.0581 13.757L42.8151 14.4075L40.0581 15.0581L39.4075 17.8151L38.757 15.0581L36 14.4075L38.757 13.757L39.4075 11Z" fill="white" fill-opacity="0.63"/>
<path d="M12.1125 14.9195C12.8746 13.6808 15.0604 11.0259 17.7065 10.3162" stroke="white" stroke-opacity="0.63" stroke-width="2" stroke-linecap="round"/>
<circle cx="10.7154" cy="17.1076" r="1.02226" transform="rotate(9.36322 10.7154 17.1076)" fill="white" fill-opacity="0.63"/>
<defs>
<linearGradient id="paint0_linear_1205_8543" x1="19.8149" y1="16.3551" x2="35.4896" y2="32.3706" gradientUnits="userSpaceOnUse">
<stop stop-color="white"/>
<stop offset="1" stop-color="white" stop-opacity="0"/>
</linearGradient>
<linearGradient id="paint1_linear_1205_8543" x1="19.1333" y1="16.3537" x2="34.808" y2="32.3691" gradientUnits="userSpaceOnUse">
<stop stop-color="white"/>
<stop offset="1" stop-color="white" stop-opacity="0"/>
</linearGradient>
</defs>
</svg>
